<?xml version="1.0" encoding="UTF-8" standalone="no"?>
<!-- Created with Inkscape (http://www.inkscape.org/) -->
<svg
   xmlns:dc="http://purl.org/dc/elements/1.1/"
   xmlns:cc="http://web.resource.org/cc/"
   xmlns:rdf="http://www.w3.org/1999/02/22-rdf-syntax-ns#"
   xmlns:svg="http://www.w3.org/2000/svg"
   xmlns="http://www.w3.org/2000/svg"
   xmlns:sodipodi="http://sodipodi.sourceforge.net/DTD/sodipodi-0.dtd"
   xmlns:inkscape="http://www.inkscape.org/namespaces/inkscape"
   version="1.0"
   width="27.47117"
   height="33.333946"
   id="svg2"
   sodipodi:version="0.32"
   inkscape:version="0.45.1"
   sodipodi:docname="Music notes.svg"
   inkscape:output_extension="org.inkscape.output.svg.inkscape"
   sodipodi:docbase="C:\Documents and Settings\Jeff\Desktop">
  <metadata
     id="metadata42">
    <rdf:RDF>
      <cc:Work
         rdf:about="">
        <dc:format>image/svg+xml</dc:format>
        <dc:type
           rdf:resource="http://purl.org/dc/dcmitype/StillImage" />
      </cc:Work>
    </rdf:RDF>
  </metadata>
  <sodipodi:namedview
     inkscape:window-height="712"
     inkscape:window-width="1024"
     inkscape:pageshadow="2"
     inkscape:pageopacity="0.0"
     guidetolerance="10.0"
     gridtolerance="10.0"
     objecttolerance="10.0"
     borderopacity="1.0"
     bordercolor="#666666"
     pagecolor="#ffffff"
     id="base"
     inkscape:zoom="3.5844875"
     inkscape:cx="73.596893"
     inkscape:cy="45.764297"
     inkscape:window-x="-4"
     inkscape:window-y="-4"
     inkscape:current-layer="svg2" />
  <defs
     id="defs4" />
  <g
     id="g2262"
     transform="matrix(0.918757,0,0,0.918757,-48.034018,-17.866603)">
    <path
       id="path62"
       style="fill:#000000;fill-rule:nonzero;stroke:#000000;stroke-width:0;stroke-linecap:butt;stroke-linejoin:round;stroke-miterlimit:10"
       d="M 62.451112,49.109413 L 62.8192,49.109413 L 62.8192,25.40718 L 62.451112,25.40718 L 62.451112,49.109413 z " />
    <path
       id="path66"
       style="fill:#000000;stroke:#000000;stroke-width:0.58674884;stroke-linecap:butt;stroke-linejoin:round;stroke-miterlimit:10"
       d="M 62.451112,49.109413 L 62.8192,49.109413 L 62.8192,25.40718 L 62.451112,25.40718 L 62.451112,49.109413 z " />
    <path
       id="path98"
       style="fill:#000000;fill-rule:evenodd;stroke:#000000;stroke-width:0;stroke-linecap:butt;stroke-linejoin:round;stroke-miterlimit:10"
       d="M 59.316604,46.200013 C 58.113676,46.348717 56.88424,46.843441 55.825612,47.666497 C 54.622684,48.545497 53.801104,49.718977 53.536072,50.921905 C 53.478652,51.306193 53.478652,51.979069 53.56552,52.273537 C 53.829076,53.302729 54.652132,53.946157 55.883032,54.211177 C 56.233456,54.268609 57.119824,54.268609 57.557116,54.211177 C 58.6717,54.003577 59.817208,53.502973 60.81106,52.772677 C 61.98454,51.893665 62.807596,50.720185 63.072616,49.517257 C 63.130048,49.132969 63.130048,48.460105 63.04318,48.137653 C 62.778148,47.171773 61.98454,46.520989 60.81106,46.257433 C 60.490084,46.200013 59.667028,46.170565 59.316604,46.200013 z " />
    <path
       d="M 80.305826,44.924714 L 80.673914,44.924714 L 80.673914,21.222482 L 80.305826,21.222482 L 80.305826,44.924714 z "
       style="fill:#000000;fill-rule:nonzero;stroke:#000000;stroke-width:0;stroke-linecap:butt;stroke-linejoin:round;stroke-miterlimit:10"
       id="path2240" />
    <path
       d="M 80.305826,44.924714 L 80.673914,44.924714 L 80.673914,21.222482 L 80.305826,21.222482 L 80.305826,44.924714 z "
       style="fill:#000000;stroke:#000000;stroke-width:0.58674884;stroke-linecap:butt;stroke-linejoin:round;stroke-miterlimit:10"
       id="path2242" />
    <path
       d="M 77.171318,42.015315 C 75.96839,42.164018 74.738954,42.658743 73.680326,43.481798 C 72.477398,44.360799 71.655818,45.534278 71.390786,46.737206 C 71.333366,47.121494 71.333366,47.79437 71.420234,48.088838 C 71.68379,49.118031 72.506846,49.761459 73.737746,50.026478 C 74.08817,50.083911 74.974538,50.083911 75.41183,50.026478 C 76.526414,49.818878 77.671922,49.318275 78.665774,48.587979 C 79.839254,47.708967 80.66231,46.535487 80.92733,45.332559 C 80.984762,44.948271 80.984762,44.275407 80.897894,43.952955 C 80.632862,42.987075 79.839254,42.336291 78.665774,42.072734 C 78.344798,42.015315 77.521742,41.985867 77.171318,42.015315 z "
       style="fill:#000000;fill-rule:evenodd;stroke:#000000;stroke-width:0;stroke-linecap:butt;stroke-linejoin:round;stroke-miterlimit:10"
       id="path2244" />
    <path
       sodipodi:nodetypes="ccccc"
       id="path2254"
       d="M 80.375,20.920305 L 62.40625,25.076555 L 62.65625,27.684312 L 80.59375,23.559312 L 80.375,20.920305 z "
       style="fill:#000000;fill-opacity:1;fill-rule:evenodd;stroke:none;stroke-width:1px;stroke-linecap:butt;stroke-linejoin:miter;stroke-opacity:1" />
    <path
       style="fill:#000000;fill-opacity:1;fill-rule:evenodd;stroke:none;stroke-width:1px;stroke-linecap:butt;stroke-linejoin:miter;stroke-opacity:1"
       d="M 80.375,26.744011 L 62.40625,30.900261 L 62.65625,33.508018 L 80.59375,29.383018 L 80.375,26.744011 z "
       id="path2260"
       sodipodi:nodetypes="ccccc" />
  </g>
</svg>
